<svg id="Layer_1" data-name="Layer 1" xmlns="http://www.w3.org/2000/svg" viewBox="0 0 16 16" height="20" width="20"
     fill="#EEEEEE">
    <title>sm-icon</title>
    <path d="M9.9,2.22A1.88,1.88,0,1,1,8,.34,1.88,1.88,0,0,1,9.9,2.22" transform="translate(-1.19 -0.34)"/>
    <path d="M11.6,7.29H4.43S3.91,4.54,6.18,4.54H9.82S11.86,4.31,11.6,7.29Z" transform="translate(-1.19 -0.34)"/>
    <polygon
            points="2.66 10.23 1.69 10.23 0 8.7 0 7.6 13.62 7.6 13.62 8.61 11.98 10.24 10.96 10.24 10.96 9.19 2.69 9.19 2.66 10.23"/>
    <polygon points="10.34 9.77 3.24 9.77 3.86 15.32 9.76 15.32 9.76 15.29 9.76 15.29 10.34 9.77"/>
</svg>
